999
created by Matlab
 0
SECTION
 2
ENTITIES
 0
LINE
 8
 0
10
 1.0000
 20
 0.0000
 30
 0.0000
11
 0.9962
 21
 0.0005
 31
 0.0000
 0
LINE
 8
 0
10
 0.9962
 20
 0.0005
 30
 0.0000
11
 0.9852
 21
 0.0024
 31
 0.0000
 0
LINE
 8
 0
10
 0.9852
 20
 0.0024
 30
 0.0000
11
 0.9678
 21
 0.0060
 31
 0.0000
 0
LINE
 8
 0
10
 0.9678
 20
 0.0060
 30
 0.0000
11
 0.9451
 21
 0.0110
 31
 0.0000
 0
LINE
 8
 0
10
 0.9451
 20
 0.0110
 30
 0.0000
11
 0.9175
 21
 0.0170
 31
 0.0000
 0
LINE
 8
 0
10
 0.9175
 20
 0.0170
 30
 0.0000
11
 0.8853
 21
 0.0235
 31
 0.0000
 0
LINE
 8
 0
10
 0.8853
 20
 0.0235
 30
 0.0000
11
 0.8485
 21
 0.0303
 31
 0.0000
 0
LINE
 8
 0
10
 0.8485
 20
 0.0303
 30
 0.0000
11
 0.8075
 21
 0.0378
 31
 0.0000
 0
LINE
 8
 0
10
 0.8075
 20
 0.0378
 30
 0.0000
11
 0.7630
 21
 0.0460
 31
 0.0000
 0
LINE
 8
 0
10
 0.7630
 20
 0.0460
 30
 0.0000
11
 0.7160
 21
 0.0549
 31
 0.0000
 0
LINE
 8
 0
10
 0.7160
 20
 0.0549
 30
 0.0000
11
 0.6671
 21
 0.0644
 31
 0.0000
 0
LINE
 8
 0
10
 0.6671
 20
 0.0644
 30
 0.0000
11
 0.6173
 21
 0.0742
 31
 0.0000
 0
LINE
 8
 0
10
 0.6173
 20
 0.0742
 30
 0.0000
11
 0.5678
 21
 0.0841
 31
 0.0000
 0
LINE
 8
 0
10
 0.5678
 20
 0.0841
 30
 0.0000
11
 0.5198
 21
 0.0933
 31
 0.0000
 0
LINE
 8
 0
10
 0.5198
 20
 0.0933
 30
 0.0000
11
 0.4742
 21
 0.0994
 31
 0.0000
 0
LINE
 8
 0
10
 0.4742
 20
 0.0994
 30
 0.0000
11
 0.4285
 21
 0.1018
 31
 0.0000
 0
LINE
 8
 0
10
 0.4285
 20
 0.1018
 30
 0.0000
11
 0.3826
 21
 0.1018
 31
 0.0000
 0
LINE
 8
 0
10
 0.3826
 20
 0.1018
 30
 0.0000
11
 0.3373
 21
 0.1001
 31
 0.0000
 0
LINE
 8
 0
10
 0.3373
 20
 0.1001
 30
 0.0000
11
 0.2930
 21
 0.0967
 31
 0.0000
 0
LINE
 8
 0
10
 0.2930
 20
 0.0967
 30
 0.0000
11
 0.2502
 21
 0.0919
 31
 0.0000
 0
LINE
 8
 0
10
 0.2502
 20
 0.0919
 30
 0.0000
11
 0.2096
 21
 0.0859
 31
 0.0000
 0
LINE
 8
 0
10
 0.2096
 20
 0.0859
 30
 0.0000
11
 0.1714
 21
 0.0787
 31
 0.0000
 0
LINE
 8
 0
10
 0.1714
 20
 0.0787
 30
 0.0000
11
 0.1362
 21
 0.0706
 31
 0.0000
 0
LINE
 8
 0
10
 0.1362
 20
 0.0706
 30
 0.0000
11
 0.1043
 21
 0.0617
 31
 0.0000
 0
LINE
 8
 0
10
 0.1043
 20
 0.0617
 30
 0.0000
11
 0.0760
 21
 0.0522
 31
 0.0000
 0
LINE
 8
 0
10
 0.0760
 20
 0.0522
 30
 0.0000
11
 0.0518
 21
 0.0424
 31
 0.0000
 0
LINE
 8
 0
10
 0.0518
 20
 0.0424
 30
 0.0000
11
 0.0319
 21
 0.0323
 31
 0.0000
 0
LINE
 8
 0
10
 0.0319
 20
 0.0323
 30
 0.0000
11
 0.0166
 21
 0.0223
 31
 0.0000
 0
LINE
 8
 0
10
 0.0166
 20
 0.0223
 30
 0.0000
11
 0.0060
 21
 0.0126
 31
 0.0000
 0
LINE
 8
 0
10
 0.0060
 20
 0.0126
 30
 0.0000
11
 0.0007
 21
 0.0037
 31
 0.0000
 0
LINE
 8
 0
10
 0.0007
 20
 0.0037
 30
 0.0000
11
 0.0002
 21
 0.0019
 31
 0.0000
 0
LINE
 8
 0
10
 0.0002
 20
 0.0019
 30
 0.0000
11
 0.0000
 21
 -0.0000
 31
 0.0000
 0
LINE
 8
 0
10
 0.0000
 20
 -0.0000
 30
 0.0000
11
 0.0002
 21
 -0.0018
 31
 0.0000
 0
LINE
 8
 0
10
 0.0002
 20
 -0.0018
 30
 0.0000
11
 0.0010
 21
 -0.0035
 31
 0.0000
 0
LINE
 8
 0
10
 0.0010
 20
 -0.0035
 30
 0.0000
11
 0.0012
 21
 -0.0037
 31
 0.0000
 0
LINE
 8
 0
10
 0.0012
 20
 -0.0037
 30
 0.0000
11
 0.0024
 21
 -0.0053
 31
 0.0000
 0
LINE
 8
 0
10
 0.0024
 20
 -0.0053
 30
 0.0000
11
 0.0093
 21
 -0.0115
 31
 0.0000
 0
LINE
 8
 0
10
 0.0093
 20
 -0.0115
 30
 0.0000
11
 0.0232
 21
 -0.0204
 31
 0.0000
 0
LINE
 8
 0
10
 0.0232
 20
 -0.0204
 30
 0.0000
11
 0.0423
 21
 -0.0303
 31
 0.0000
 0
LINE
 8
 0
10
 0.0423
 20
 -0.0303
 30
 0.0000
11
 0.0659
 21
 -0.0408
 31
 0.0000
 0
LINE
 8
 0
10
 0.0659
 20
 -0.0408
 30
 0.0000
11
 0.0934
 21
 -0.0519
 31
 0.0000
 0
LINE
 8
 0
10
 0.0934
 20
 -0.0519
 30
 0.0000
11
 0.1241
 21
 -0.0631
 31
 0.0000
 0
LINE
 8
 0
10
 0.1241
 20
 -0.0631
 30
 0.0000
11
 0.1577
 21
 -0.0737
 31
 0.0000
 0
LINE
 8
 0
10
 0.1577
 20
 -0.0737
 30
 0.0000
11
 0.1937
 21
 -0.0836
 31
 0.0000
 0
LINE
 8
 0
10
 0.1937
 20
 -0.0836
 30
 0.0000
11
 0.2319
 21
 -0.0924
 31
 0.0000
 0
LINE
 8
 0
10
 0.2319
 20
 -0.0924
 30
 0.0000
11
 0.2714
 21
 -0.0999
 31
 0.0000
 0
LINE
 8
 0
10
 0.2714
 20
 -0.0999
 30
 0.0000
11
 0.3120
 21
 -0.1053
 31
 0.0000
 0
LINE
 8
 0
10
 0.3120
 20
 -0.1053
 30
 0.0000
11
 0.3534
 21
 -0.1082
 31
 0.0000
 0
LINE
 8
 0
10
 0.3534
 20
 -0.1082
 30
 0.0000
11
 0.3953
 21
 -0.1080
 31
 0.0000
 0
LINE
 8
 0
10
 0.3953
 20
 -0.1080
 30
 0.0000
11
 0.4383
 21
 -0.1046
 31
 0.0000
 0
LINE
 8
 0
10
 0.4383
 20
 -0.1046
 30
 0.0000
11
 0.4819
 21
 -0.0973
 31
 0.0000
 0
LINE
 8
 0
10
 0.4819
 20
 -0.0973
 30
 0.0000
11
 0.5279
 21
 -0.0866
 31
 0.0000
 0
LINE
 8
 0
10
 0.5279
 20
 -0.0866
 30
 0.0000
11
 0.5762
 21
 -0.0740
 31
 0.0000
 0
LINE
 8
 0
10
 0.5762
 20
 -0.0740
 30
 0.0000
11
 0.6261
 21
 -0.0606
 31
 0.0000
 0
LINE
 8
 0
10
 0.6261
 20
 -0.0606
 30
 0.0000
11
 0.6767
 21
 -0.0474
 31
 0.0000
 0
LINE
 8
 0
10
 0.6767
 20
 -0.0474
 30
 0.0000
11
 0.7272
 21
 -0.0351
 31
 0.0000
 0
LINE
 8
 0
10
 0.7272
 20
 -0.0351
 30
 0.0000
11
 0.7764
 21
 -0.0242
 31
 0.0000
 0
LINE
 8
 0
10
 0.7764
 20
 -0.0242
 30
 0.0000
11
 0.8233
 21
 -0.0152
 31
 0.0000
 0
LINE
 8
 0
10
 0.8233
 20
 -0.0152
 30
 0.0000
11
 0.8666
 21
 -0.0082
 31
 0.0000
 0
LINE
 8
 0
10
 0.8666
 20
 -0.0082
 30
 0.0000
11
 0.9054
 21
 -0.0034
 31
 0.0000
 0
LINE
 8
 0
10
 0.9054
 20
 -0.0034
 30
 0.0000
11
 0.9385
 21
 -0.0005
 31
 0.0000
 0
LINE
 8
 0
10
 0.9385
 20
 -0.0005
 30
 0.0000
11
 0.9651
 21
 0.0007
 31
 0.0000
 0
LINE
 8
 0
10
 0.9651
 20
 0.0007
 30
 0.0000
11
 0.9845
 21
 0.0008
 31
 0.0000
 0
LINE
 8
 0
10
 0.9845
 20
 0.0008
 30
 0.0000
11
 0.9961
 21
 0.0003
 31
 0.0000
 0
LINE
 8
 0
10
 0.9961
 20
 0.0003
 30
 0.0000
11
 1.0000
 21
 0.0000
 31
 0.0000
 0
ENDSEC
 0
EOF
