999
created by Matlab
 0
SECTION
 2
ENTITIES
 0
LINE
 8
 0
10
 0.0000
 20
 1.0000
 30
 0.0000
11
 0.0000
 21
 0.9962
 31
 0.0002
 0
LINE
 8
 0
10
 0.0000
 20
 0.9962
 30
 0.0002
11
 0.0000
 21
 0.9852
 31
 0.0010
 0
LINE
 8
 0
10
 0.0000
 20
 0.9852
 30
 0.0010
11
 0.0000
 21
 0.9676
 31
 0.0029
 0
LINE
 8
 0
10
 0.0000
 20
 0.9676
 30
 0.0029
11
 0.0000
 21
 0.9442
 31
 0.0056
 0
LINE
 8
 0
10
 0.0000
 20
 0.9442
 30
 0.0056
11
 0.0000
 21
 0.9151
 31
 0.0091
 0
LINE
 8
 0
10
 0.0000
 20
 0.9151
 30
 0.0091
11
 0.0000
 21
 0.8807
 31
 0.0136
 0
LINE
 8
 0
10
 0.0000
 20
 0.8807
 30
 0.0136
11
 0.0000
 21
 0.8418
 31
 0.0192
 0
LINE
 8
 0
10
 0.0000
 20
 0.8418
 30
 0.0192
11
 0.0000
 21
 0.7989
 31
 0.0258
 0
LINE
 8
 0
10
 0.0000
 20
 0.7989
 30
 0.0258
11
 0.0000
 21
 0.7530
 31
 0.0333
 0
LINE
 8
 0
10
 0.0000
 20
 0.7530
 30
 0.0333
11
 0.0000
 21
 0.7046
 31
 0.0416
 0
LINE
 8
 0
10
 0.0000
 20
 0.7046
 30
 0.0416
11
 0.0000
 21
 0.6546
 31
 0.0503
 0
LINE
 8
 0
10
 0.0000
 20
 0.6546
 30
 0.0503
11
 0.0000
 21
 0.6037
 31
 0.0591
 0
LINE
 8
 0
10
 0.0000
 20
 0.6037
 30
 0.0591
11
 0.0000
 21
 0.5524
 31
 0.0677
 0
LINE
 8
 0
10
 0.0000
 20
 0.5524
 30
 0.0677
11
 0.0000
 21
 0.5015
 31
 0.0757
 0
LINE
 8
 0
10
 0.0000
 20
 0.5015
 30
 0.0757
11
 0.0000
 21
 0.4514
 31
 0.0829
 0
LINE
 8
 0
10
 0.0000
 20
 0.4514
 30
 0.0829
11
 0.0000
 21
 0.4028
 31
 0.0888
 0
LINE
 8
 0
10
 0.0000
 20
 0.4028
 30
 0.0888
11
 0.0000
 21
 0.3559
 31
 0.0933
 0
LINE
 8
 0
10
 0.0000
 20
 0.3559
 30
 0.0933
11
 0.0000
 21
 0.3113
 31
 0.0959
 0
LINE
 8
 0
10
 0.0000
 20
 0.3113
 30
 0.0959
11
 0.0000
 21
 0.2692
 31
 0.0963
 0
LINE
 8
 0
10
 0.0000
 20
 0.2692
 30
 0.0963
11
 0.0000
 21
 0.2293
 31
 0.0942
 0
LINE
 8
 0
10
 0.0000
 20
 0.2293
 30
 0.0942
11
 0.0000
 21
 0.1917
 31
 0.0902
 0
LINE
 8
 0
10
 0.0000
 20
 0.1917
 30
 0.0902
11
 0.0000
 21
 0.1567
 31
 0.0845
 0
LINE
 8
 0
10
 0.0000
 20
 0.1567
 30
 0.0845
11
 0.0000
 21
 0.1247
 31
 0.0773
 0
LINE
 8
 0
10
 0.0000
 20
 0.1247
 30
 0.0773
11
 0.0000
 21
 0.0959
 31
 0.0688
 0
LINE
 8
 0
10
 0.0000
 20
 0.0959
 30
 0.0688
11
 0.0000
 21
 0.0705
 31
 0.0592
 0
LINE
 8
 0
10
 0.0000
 20
 0.0705
 30
 0.0592
11
 0.0000
 21
 0.0487
 31
 0.0488
 0
LINE
 8
 0
10
 0.0000
 20
 0.0487
 30
 0.0488
11
 0.0000
 21
 0.0308
 31
 0.0379
 0
LINE
 8
 0
10
 0.0000
 20
 0.0308
 30
 0.0379
11
 0.0000
 21
 0.0168
 31
 0.0268
 0
LINE
 8
 0
10
 0.0000
 20
 0.0168
 30
 0.0268
11
 0.0000
 21
 0.0069
 31
 0.0159
 0
LINE
 8
 0
10
 0.0000
 20
 0.0069
 30
 0.0159
11
 0.0000
 21
 0.0014
 31
 0.0065
 0
LINE
 8
 0
10
 0.0000
 20
 0.0014
 30
 0.0065
11
 0.0000
 21
 0.0005
 31
 0.0037
 0
LINE
 8
 0
10
 0.0000
 20
 0.0005
 30
 0.0037
11
 0.0000
 21
 0.0001
 31
 0.0011
 0
LINE
 8
 0
10
 0.0000
 20
 0.0001
 30
 0.0011
11
 0.0000
 21
 0.0000
 31
 -0.0005
 0
LINE
 8
 0
10
 0.0000
 20
 0.0000
 30
 -0.0005
11
 0.0000
 21
 0.0002
 31
 -0.0019
 0
LINE
 8
 0
10
 0.0000
 20
 0.0002
 30
 -0.0019
11
 0.0000
 21
 0.0008
 31
 -0.0033
 0
LINE
 8
 0
10
 0.0000
 20
 0.0008
 30
 -0.0033
11
 0.0000
 21
 0.0017
 31
 -0.0047
 0
LINE
 8
 0
10
 0.0000
 20
 0.0017
 30
 -0.0047
11
 0.0000
 21
 0.0035
 31
 -0.0069
 0
LINE
 8
 0
10
 0.0000
 20
 0.0035
 30
 -0.0069
11
 0.0000
 21
 0.0059
 31
 -0.0091
 0
LINE
 8
 0
10
 0.0000
 20
 0.0059
 30
 -0.0091
11
 0.0000
 21
 0.0181
 31
 -0.0172
 0
LINE
 8
 0
10
 0.0000
 20
 0.0181
 30
 -0.0172
11
 0.0000
 21
 0.0347
 31
 -0.0249
 0
LINE
 8
 0
10
 0.0000
 20
 0.0347
 30
 -0.0249
11
 0.0000
 21
 0.0559
 31
 -0.0323
 0
LINE
 8
 0
10
 0.0000
 20
 0.0559
 30
 -0.0323
11
 0.0000
 21
 0.0813
 31
 -0.0391
 0
LINE
 8
 0
10
 0.0000
 20
 0.0813
 30
 -0.0391
11
 0.0000
 21
 0.1107
 31
 -0.0450
 0
LINE
 8
 0
10
 0.0000
 20
 0.1107
 30
 -0.0450
11
 0.0000
 21
 0.1439
 31
 -0.0499
 0
LINE
 8
 0
10
 0.0000
 20
 0.1439
 30
 -0.0499
11
 0.0000
 21
 0.1807
 31
 -0.0534
 0
LINE
 8
 0
10
 0.0000
 20
 0.1807
 30
 -0.0534
11
 0.0000
 21
 0.2209
 31
 -0.0555
 0
LINE
 8
 0
10
 0.0000
 20
 0.2209
 30
 -0.0555
11
 0.0000
 21
 0.2643
 31
 -0.0564
 0
LINE
 8
 0
10
 0.0000
 20
 0.2643
 30
 -0.0564
11
 0.0000
 21
 0.3106
 31
 -0.0561
 0
LINE
 8
 0
10
 0.0000
 20
 0.3106
 30
 -0.0561
11
 0.0000
 21
 0.3593
 31
 -0.0547
 0
LINE
 8
 0
10
 0.0000
 20
 0.3593
 30
 -0.0547
11
 0.0000
 21
 0.4100
 31
 -0.0525
 0
LINE
 8
 0
10
 0.0000
 20
 0.4100
 30
 -0.0525
11
 0.0000
 21
 0.4620
 31
 -0.0497
 0
LINE
 8
 0
10
 0.0000
 20
 0.4620
 30
 -0.0497
11
 0.0000
 21
 0.5148
 31
 -0.0464
 0
LINE
 8
 0
10
 0.0000
 20
 0.5148
 30
 -0.0464
11
 0.0000
 21
 0.5677
 31
 -0.0426
 0
LINE
 8
 0
10
 0.0000
 20
 0.5677
 30
 -0.0426
11
 0.0000
 21
 0.6200
 31
 -0.0386
 0
LINE
 8
 0
10
 0.0000
 20
 0.6200
 30
 -0.0386
11
 0.0000
 21
 0.6711
 31
 -0.0343
 0
LINE
 8
 0
10
 0.0000
 20
 0.6711
 30
 -0.0343
11
 0.0000
 21
 0.7205
 31
 -0.0300
 0
LINE
 8
 0
10
 0.0000
 20
 0.7205
 30
 -0.0300
11
 0.0000
 21
 0.7676
 31
 -0.0256
 0
LINE
 8
 0
10
 0.0000
 20
 0.7676
 30
 -0.0256
11
 0.0000
 21
 0.8117
 31
 -0.0213
 0
LINE
 8
 0
10
 0.0000
 20
 0.8117
 30
 -0.0213
11
 0.0000
 21
 0.8523
 31
 -0.0173
 0
LINE
 8
 0
10
 0.0000
 20
 0.8523
 30
 -0.0173
11
 0.0000
 21
 0.8888
 31
 -0.0134
 0
LINE
 8
 0
10
 0.0000
 20
 0.8888
 30
 -0.0134
11
 0.0000
 21
 0.9209
 31
 -0.0099
 0
LINE
 8
 0
10
 0.0000
 20
 0.9209
 30
 -0.0099
11
 0.0000
 21
 0.9480
 31
 -0.0068
 0
LINE
 8
 0
10
 0.0000
 20
 0.9480
 30
 -0.0068
11
 0.0000
 21
 0.9698
 31
 -0.0040
 0
LINE
 8
 0
10
 0.0000
 20
 0.9698
 30
 -0.0040
11
 0.0000
 21
 0.9861
 31
 -0.0018
 0
LINE
 8
 0
10
 0.0000
 20
 0.9861
 30
 -0.0018
11
 0.0000
 21
 0.9964
 31
 -0.0004
 0
LINE
 8
 0
10
 0.0000
 20
 0.9964
 30
 -0.0004
11
 0.0000
 21
 1.0000
 31
 0.0000
 0
ENDSEC
 0
EOF
